<?xml version="1.0" standalone="no"?>
<!DOCTYPE svg PUBLIC "-//W3C//DTD SVG 20010904//EN"
 "http://www.w3.org/TR/2001/REC-SVG-20010904/DTD/svg10.dtd">
<svg version="1.0" xmlns="http://www.w3.org/2000/svg"
 width="1980.000000pt" height="884.000000pt" viewBox="0 0 1980.000000 884.000000"
 preserveAspectRatio="xMidYMid meet">

<g transform="translate(0.000000,884.000000) scale(0.100000,-0.100000)"
fill="#000000" stroke="none">
<path d="M0 4420 l0 -4420 9900 0 9900 0 0 4420 0 4420 -9900 0 -9900 0 0
-4420z m15670 2760 c0 -6 33 -10 79 -10 106 0 285 -19 289 -31 2 -5 17 -9 33
-9 16 0 29 -4 29 -10 0 -5 14 -10 30 -10 17 0 30 -4 30 -10 0 -5 9 -10 20 -10
11 0 20 -4 20 -10 0 -5 9 -10 20 -10 11 0 20 -4 20 -10 0 -5 18 -10 40 -10 22
0 40 -4 40 -10 0 -5 18 -13 40 -16 22 -4 40 -10 40 -14 0 -4 33 -18 73 -31 39
-13 79 -32 88 -41 9 -10 21 -18 28 -18 6 0 11 -4 11 -10 0 -5 7 -10 15 -10 8
0 15 -4 15 -10 0 -5 11 -12 24 -16 14 -3 27 -12 30 -20 3 -8 12 -14 21 -14 8
0 15 -4 15 -10 0 -5 5 -10 10 -10 6 0 22 -11 36 -25 14 -14 34 -25 45 -25 11
0 24 -11 31 -25 6 -14 16 -25 22 -25 11 0 66 -60 66 -72 0 -5 5 -8 10 -8 6 0
33 -22 60 -50 27 -27 52 -50 55 -50 3 0 18 -14 33 -31 15 -17 39 -44 55 -60
15 -16 27 -37 27 -45 0 -20 24 -44 45 -44 8 0 21 -11 27 -25 6 -14 14 -25 18
-25 4 0 12 -11 18 -25 6 -14 17 -25 25 -25 14 0 39 -27 58 -62 6 -13 18 -27
25 -31 22 -13 17 -29 -5 -17 -11 5 -29 10 -41 10 -11 0 -23 7 -26 15 -4 8 -12
15 -20 15 -8 0 -14 5 -14 10 0 6 -9 10 -20 10 -11 0 -20 5 -20 10 0 6 -6 10
-14 10 -8 0 -16 5 -18 11 -2 7 -67 15 -178 20 -96 5 -176 14 -178 19 -5 12
-332 13 -332 1 0 -8 -25 -11 -242 -27 -74 -5 -88 -9 -93 -25 -5 -14 -16 -19
-46 -19 -21 0 -39 -4 -39 -10 0 -5 -9 -10 -20 -10 -11 0 -20 -4 -20 -9 0 -22
-110 -35 -285 -34 -249 1 -395 13 -395 34 0 5 -16 9 -35 9 -19 0 -35 5 -35 10
0 6 -6 10 -14 10 -8 0 -17 9 -21 19 -6 20 -20 24 -107 36 -27 3 -48 10 -48 16
0 5 -18 9 -40 9 -22 0 -40 5 -40 10 0 6 -16 10 -35 10 -19 0 -35 5 -35 10 0 6
-30 10 -70 10 -40 0 -70 4 -70 10 0 6 -43 10 -110 10 -67 0 -110 -4 -110 -10
0 -6 -27 -10 -60 -10 -33 0 -60 -4 -60 -10 0 -5 -16 -10 -35 -10 -19 0 -35 -4
-35 -10 0 -5 -11 -10 -24 -10 -13 0 -26 -4 -28 -9 -1 -6 -32 -14 -66 -20 -43
-7 -70 -17 -82 -31 -9 -11 -22 -20 -29 -20 -6 0 -11 -4 -11 -10 0 -5 -7 -10
-15 -10 -8 0 -15 -4 -15 -8 0 -5 -18 -17 -40 -28 -22 -10 -42 -26 -45 -35 -7
-22 -51 -69 -65 -69 -6 0 -16 -11 -22 -25 -6 -14 -23 -30 -38 -36 -34 -16 -50
-51 -50 -111 0 -26 -4 -48 -9 -48 -4 0 -11 -37 -15 -82 -4 -45 -9 -84 -11 -86
-2 -3 -48 -6 -102 -8 -54 -2 -91 -1 -82 2 10 3 20 20 23 39 4 18 12 35 20 38
7 3 16 28 19 58 4 29 10 55 15 58 4 3 14 25 20 49 7 23 17 42 22 42 5 0 15 18
21 40 7 22 16 40 20 40 4 0 15 23 24 50 9 28 20 50 25 50 4 0 10 10 14 23 3
13 15 34 26 47 11 13 20 30 20 38 0 8 10 25 23 36 12 12 29 33 37 46 8 12 25
34 38 48 12 14 22 29 22 33 0 5 18 27 39 51 22 24 49 54 61 68 50 60 78 86
103 99 15 8 29 21 32 30 2 9 21 30 41 46 20 17 48 42 62 56 15 15 41 29 58 33
16 4 36 16 44 26 8 11 20 20 27 20 7 0 13 5 13 10 0 6 7 10 15 10 9 0 18 6 21
14 3 8 16 17 30 20 13 4 24 11 24 16 0 6 6 10 14 10 8 0 18 9 21 20 3 11 13
20 21 20 8 0 14 4 14 9 0 5 33 19 73 32 39 12 74 26 77 29 3 4 17 10 33 14 15
3 27 11 27 16 0 6 16 10 35 10 19 0 35 5 35 10 0 6 9 10 20 10 11 0 20 5 20
10 0 6 11 10 25 10 14 0 25 5 25 10 0 6 11 10 25 10 14 0 25 5 25 10 0 6 16
10 35 10 19 0 35 4 35 8 0 10 188 32 268 32 28 0 52 5 52 10 0 6 33 10 80 10
47 0 80 -4 80 -10z m-9930 -430 c0 -6 68 -10 185 -10 158 0 185 -2 185 -15 0
-12 13 -15 60 -15 53 0 60 -2 60 -20 0 -18 7 -20 55 -20 42 0 55 -3 55 -15 0
-11 12 -15 45 -15 38 0 45 -3 45 -20 0 -16 7 -20 35 -20 19 0 35 -4 35 -10 0
-5 16 -10 36 -10 39 0 64 -18 64 -48 0 -16 9 -21 55 -27 50 -6 55 -9 55 -31 0
-19 5 -24 25 -24 20 0 25 -5 25 -25 0 -14 5 -25 11 -25 7 0 19 -8 28 -18 9
-11 36 -22 59 -26 52 -8 72 -25 72 -60 0 -16 6 -26 14 -26 8 0 18 -9 21 -20 3
-11 15 -20 26 -20 12 0 19 -7 19 -20 0 -11 7 -20 15 -20 8 0 15 -6 15 -14 0
-7 9 -16 20 -19 15 -4 20 -14 20 -42 0 -28 5 -38 20 -42 13 -3 22 -17 26 -39
4 -20 13 -36 25 -39 12 -4 19 -16 19 -31 0 -13 5 -24 10 -24 6 0 10 -9 10 -21
0 -12 8 -23 19 -26 19 -5 25 -23 37 -120 4 -29 11 -43 25 -46 11 -3 19 -14 19
-25 0 -11 4 -22 10 -24 5 -1 13 -31 16 -65 4 -40 11 -63 19 -63 19 0 25 -24
25 -106 0 -56 3 -74 14 -74 15 0 21 -31 32 -147 4 -47 11 -73 19 -73 14 0 25
-106 25 -237 0 -67 3 -83 15 -83 12 0 15 -19 15 -110 0 -91 -3 -110 -15 -110
-12 0 -15 -14 -15 -67 0 -145 -13 -293 -25 -293 -12 0 -17 -33 -31 -207 -5
-60 -11 -83 -20 -83 -10 0 -14 -14 -14 -44 0 -23 -3 -70 -6 -104 -5 -47 -11
-61 -25 -65 -15 -4 -19 -15 -19 -46 0 -23 -4 -41 -10 -41 -5 0 -10 -10 -10
-22 0 -38 -12 -68 -25 -68 -17 0 -25 -23 -25 -67 0 -26 -5 -36 -20 -40 -14 -4
-21 -17 -26 -49 -3 -24 -10 -44 -15 -44 -5 0 -9 -11 -9 -25 0 -18 -5 -25 -19
-25 -13 0 -21 -10 -25 -34 -4 -22 -13 -36 -26 -39 -14 -3 -21 -17 -26 -46 -4
-23 -12 -41 -19 -41 -8 0 -16 -18 -20 -40 -4 -22 -11 -40 -16 -40 -5 0 -9 -7
-9 -15 0 -9 -9 -15 -21 -15 -12 0 -23 -8 -26 -20 -3 -11 -10 -20 -15 -20 -15
0 -38 -27 -38 -44 0 -9 -7 -16 -15 -16 -8 0 -15 -9 -15 -20 0 -16 -7 -20 -35
-20 -28 0 -35 -4 -35 -20 0 -11 -4 -20 -10 -20 -5 0 -10 -7 -10 -15 0 -8 -7
-15 -15 -15 -8 0 -15 -9 -15 -20 0 -13 -7 -20 -20 -20 -13 0 -20 -7 -20 -20 0
-16 -7 -20 -30 -20 -16 0 -30 -4 -30 -10 0 -5 -7 -10 -15 -10 -8 0 -15 -4 -15
-10 0 -5 -11 -10 -25 -10 -16 0 -25 -6 -25 -15 0 -10 -10 -15 -30 -15 -27 0
-30 -3 -30 -30 0 -25 -4 -30 -25 -30 -16 0 -25 -6 -25 -15 0 -9 -9 -15 -25
-15 -14 0 -25 -4 -25 -10 0 -5 -18 -10 -40 -10 -32 0 -40 -4 -40 -19 0 -15
-11 -19 -61 -25 -34 -3 -88 -6 -120 -6 -52 0 -59 -2 -59 -20 0 -20 -7 -20
-800 -20 -793 0 -800 0 -800 20 0 20 -7 20 -303 20 l-304 0 -6 287 c-4 157 -7
369 -7 471 l0 184 220 -3 220 -4 0 67 c0 54 3 68 15 68 10 0 15 10 15 30 0 20
-5 30 -15 30 -13 0 -15 112 -15 950 l0 950 411 -2 411 -3 -2 -1017 -1 -1018
21 0 c11 0 20 7 20 15 0 13 54 15 430 15 280 0 430 3 430 10 0 6 25 10 55 10
42 0 55 3 55 15 0 9 9 15 25 15 18 0 25 5 25 20 0 16 7 20 30 20 17 0 30 5 30
10 0 6 11 10 25 10 18 0 25 5 25 20 0 11 7 20 15 20 8 0 15 9 15 20 0 13 9 22
25 26 14 3 25 10 25 15 0 5 9 9 20 9 14 0 20 7 20 24 0 34 10 56 26 56 7 0 16
15 20 35 4 21 13 37 25 40 10 4 19 13 19 21 0 8 6 14 14 14 14 0 26 29 26 68
0 13 7 30 15 38 8 9 15 26 15 38 0 44 12 86 25 86 9 0 15 28 20 90 4 50 11 90
16 90 5 0 9 41 9 90 0 53 4 90 10 90 6 0 10 35 10 85 0 50 -4 85 -10 85 -6 0
-10 37 -10 90 0 53 -4 90 -10 90 -5 0 -10 26 -10 58 0 71 -8 102 -26 102 -9 0
-14 11 -14 32 0 45 -22 148 -32 148 -4 0 -8 11 -8 24 0 35 -10 56 -26 56 -8 0
-14 5 -14 10 0 6 -11 22 -25 36 -17 17 -25 36 -25 59 0 23 -5 35 -14 35 -7 0
-16 9 -19 20 -3 12 -14 20 -26 20 -12 0 -21 6 -21 15 0 8 -6 15 -14 15 -8 0
-16 7 -20 15 -3 8 -12 15 -21 15 -11 0 -15 10 -15 35 0 28 -4 35 -20 35 -11 0
-20 5 -20 11 0 19 -28 39 -54 39 -19 0 -26 5 -26 19 0 20 -13 23 -137 37 -34
3 -626 3 -1316 -1 l-1254 -7 5 -1572 c2 -882 8 -1572 13 -1574 5 -2 9 -12 9
-23 0 -18 -13 -19 -438 -19 l-439 0 -6 908 c-4 499 -7 1106 -7 1350 0 435 0
442 -20 442 -19 0 -20 7 -20 210 0 203 1 210 20 210 16 0 20 7 20 35 l0 35
-459 0 c-253 0 -466 3 -475 6 -14 5 -16 58 -16 490 0 316 3 484 10 484 6 0 10
7 10 15 0 13 34 15 250 15 160 0 250 4 250 10 0 7 597 10 1770 10 1173 0 1770
-3 1770 -10z m3710 -130 c0 -19 7 -20 125 -20 77 0 125 -4 125 -10 0 -6 27
-10 60 -10 33 0 60 -4 60 -10 0 -5 20 -10 45 -10 41 0 45 -2 45 -25 0 -23 4
-25 44 -25 78 0 106 -10 106 -36 0 -19 5 -24 25 -24 20 0 25 -5 25 -25 0 -22
4 -25 35 -25 19 0 35 -4 35 -10 0 -5 9 -10 20 -10 11 0 20 -4 20 -10 0 -5 9
-10 19 -10 11 0 26 -7 35 -15 8 -8 26 -15 40 -15 22 0 26 -4 26 -30 0 -23 5
-30 19 -30 11 0 23 -9 26 -20 3 -11 15 -20 26 -20 15 0 19 -7 19 -35 0 -28 4
-35 19 -35 39 0 51 -11 51 -47 0 -26 5 -36 20 -40 11 -3 20 -12 20 -19 0 -8 5
-14 10 -14 6 0 10 -8 10 -19 0 -10 9 -21 20 -24 16 -4 20 -14 20 -51 0 -39 3
-46 20 -46 13 0 20 -7 20 -20 0 -11 4 -20 9 -20 5 0 12 -11 15 -25 4 -14 13
-25 21 -25 11 0 15 -11 15 -39 0 -22 5 -43 10 -46 6 -3 10 -19 10 -36 0 -18 5
-29 14 -29 9 0 15 -22 20 -77 3 -42 11 -80 17 -84 6 -4 14 -39 17 -78 3 -51 9
-71 18 -71 12 0 14 -61 14 -350 0 -290 -2 -350 -14 -350 -10 0 -15 -24 -20
-90 -4 -49 -11 -90 -16 -90 -4 0 -11 -29 -15 -65 -4 -43 -11 -65 -20 -65 -7 0
-15 -15 -18 -32 -17 -104 -21 -118 -33 -118 -7 0 -16 -9 -19 -20 -3 -11 -11
-20 -16 -20 -5 0 -9 -9 -9 -20 0 -11 -4 -20 -10 -20 -5 0 -10 -5 -10 -11 0 -6
-7 -17 -15 -25 -8 -9 -15 -24 -15 -35 0 -10 -6 -19 -14 -19 -8 0 -17 -13 -21
-30 -5 -21 -13 -30 -26 -30 -10 0 -19 -7 -19 -15 0 -9 -7 -18 -15 -21 -8 -4
-15 -15 -15 -25 0 -14 -7 -19 -25 -19 -16 0 -25 -6 -25 -15 0 -8 -5 -15 -11
-15 -19 0 -39 -28 -39 -54 0 -19 -5 -26 -20 -26 -11 0 -20 -4 -20 -10 0 -5
-11 -10 -24 -10 -37 0 -56 -10 -56 -31 0 -12 -7 -19 -20 -19 -13 0 -20 -7 -20
-20 0 -15 -7 -20 -25 -20 -14 0 -25 -4 -25 -10 0 -5 -22 -10 -50 -10 -43 0
-50 -3 -50 -20 0 -14 -7 -20 -24 -20 -28 0 -34 -17 -28 -82 3 -39 8 -47 28
-52 15 -4 24 -14 24 -26 0 -11 7 -20 15 -20 8 0 17 -11 21 -25 3 -14 10 -25
15 -25 5 0 9 -11 9 -25 0 -20 5 -25 25 -25 18 0 25 -5 25 -20 0 -13 7 -20 19
-20 14 0 21 -10 25 -35 4 -19 13 -35 20 -35 7 0 17 -26 25 -65 11 -53 17 -65
32 -65 10 0 19 -7 19 -15 0 -8 5 -15 10 -15 6 0 10 -9 10 -20 0 -13 7 -20 20
-20 14 0 22 -11 29 -37 6 -21 11 -44 11 -50 0 -7 6 -13 14 -13 8 0 17 -15 20
-35 5 -26 12 -35 26 -35 13 0 20 -7 20 -20 0 -11 4 -20 9 -20 5 0 11 -13 15
-30 3 -17 12 -30 20 -30 15 0 36 -49 36 -86 0 -14 6 -24 14 -24 8 0 17 -11 20
-25 4 -14 11 -25 16 -25 6 0 10 -9 10 -20 0 -20 -7 -20 -545 -20 -538 0 -545
0 -545 20 0 11 -7 20 -15 20 -8 0 -15 5 -15 10 0 6 -6 10 -14 10 -14 0 -26 29
-26 68 0 15 -6 22 -20 22 -11 0 -20 6 -20 13 0 8 -9 24 -20 37 -11 13 -20 31
-20 42 0 10 -7 18 -15 18 -8 0 -15 9 -15 20 0 13 -7 20 -20 20 -14 0 -21 9
-26 35 -4 25 -12 35 -24 35 -13 0 -20 10 -25 38 -3 21 -15 45 -26 52 -10 8
-19 20 -19 26 0 7 -7 14 -15 18 -8 3 -15 12 -15 21 0 8 -6 15 -14 15 -9 0 -18
22 -27 65 -7 36 -18 65 -24 65 -6 0 -17 16 -25 35 -9 22 -20 35 -32 35 -11 0
-18 7 -18 20 0 11 -6 20 -14 20 -8 0 -16 15 -19 35 -6 39 -27 65 -51 65 -9 0
-16 8 -16 20 0 19 -7 20 -170 20 -163 0 -170 -1 -170 -20 0 -19 -7 -20 -160
-20 l-160 0 0 -25 c0 -16 -6 -25 -15 -25 -12 0 -15 -13 -15 -60 0 -47 3 -60
15 -60 13 0 15 -44 15 -335 0 -291 -2 -335 -15 -335 -8 0 -15 -9 -15 -20 0
-20 -7 -20 -360 -20 l-360 0 -1 268 c0 147 0 355 -1 462 -1 345 1 390 15 390
15 0 27 179 27 408 0 115 1 122 20 122 13 0 20 7 20 20 0 20 7 20 300 20 193
0 300 4 300 10 0 7 197 10 570 10 500 0 570 2 570 15 0 12 17 15 95 15 88 0
95 1 95 20 0 17 7 20 40 20 22 0 40 5 40 10 0 6 16 10 35 10 24 0 35 5 35 15
0 9 9 15 25 15 16 0 25 6 25 15 0 8 9 15 20 15 14 0 21 9 26 34 5 28 12 36 35
41 23 5 30 13 35 41 3 19 12 34 20 34 12 0 34 56 34 88 0 6 6 12 14 12 9 0 16
20 21 65 3 36 11 65 16 65 5 0 9 23 9 50 0 43 3 50 20 50 18 0 20 7 20 85 0
78 -2 85 -20 85 -18 0 -20 7 -20 69 0 38 -4 71 -10 73 -5 2 -13 31 -16 66 -4
39 -11 62 -19 62 -12 0 -20 26 -32 103 -4 28 -10 37 -24 37 -10 0 -19 6 -19
14 0 8 -13 17 -29 21 -19 4 -31 14 -35 30 -5 19 -15 25 -51 31 -43 6 -45 8
-45 40 0 32 -2 34 -35 34 -24 0 -35 5 -35 15 0 11 -11 15 -40 15 -22 0 -40 5
-40 10 0 7 -342 10 -1005 10 l-1005 0 0 450 0 450 260 0 c167 0 260 4 260 10
0 6 133 10 380 10 373 0 380 0 380 20 0 20 7 20 320 20 313 0 320 0 320 -20z
m5260 -320 c0 -6 38 -10 95 -10 52 0 95 -4 95 -9 0 -5 36 -12 81 -16 66 -6 85
-11 105 -32 27 -27 28 -32 13 -53 -8 -11 -12 -12 -16 -2 -3 8 -28 12 -74 12
-39 0 -69 4 -69 10 0 6 -33 10 -80 10 -47 0 -80 4 -80 10 0 6 -45 10 -115 10
-70 0 -115 4 -115 10 0 6 -17 10 -37 10 -21 0 -45 5 -53 10 -12 8 -11 10 8 10
12 0 22 5 22 10 0 6 27 10 60 10 33 0 60 4 60 10 0 6 23 10 50 10 28 0 50 -4
50 -10z m810 -170 c0 -6 27 -10 60 -10 33 0 60 -4 60 -10 0 -6 27 -10 60 -10
33 0 60 4 60 10 0 6 9 10 20 10 11 0 20 -4 20 -10 0 -5 18 -10 40 -10 22 0 40
-4 40 -9 0 -5 12 -12 27 -16 49 -12 56 -44 18 -77 -14 -12 -25 -30 -25 -40 0
-10 -4 -18 -10 -18 -5 0 -10 -20 -10 -45 0 -25 5 -45 10 -45 6 0 10 -18 10
-41 0 -55 21 -179 30 -179 5 0 13 -22 20 -50 7 -27 15 -50 19 -50 4 0 13 -18
20 -40 6 -22 16 -40 20 -40 5 0 11 -12 14 -28 3 -15 14 -37 24 -50 10 -12 27
-34 38 -48 11 -15 39 -47 63 -72 23 -25 42 -49 42 -53 0 -5 7 -9 15 -9 9 0 18
-7 21 -15 3 -8 22 -19 42 -26 20 -7 43 -18 50 -26 7 -7 22 -13 33 -13 10 0 19
-4 19 -9 0 -5 25 -12 55 -16 30 -3 55 -10 55 -15 0 -4 29 -11 65 -15 36 -3 65
-11 65 -16 0 -5 34 -9 75 -9 43 0 75 -4 75 -10 0 -6 60 -10 160 -10 100 0 160
4 160 10 0 6 25 10 55 10 30 0 55 5 55 10 0 6 9 10 19 10 11 0 26 7 35 15 8 8
28 18 45 21 16 4 32 12 35 20 3 8 12 14 21 14 8 0 15 5 15 10 0 6 11 15 25 20
14 5 25 14 25 20 0 5 7 10 15 10 9 0 18 7 21 15 4 8 12 15 20 15 8 0 14 6 14
14 0 8 8 17 18 20 11 4 25 18 32 31 18 34 63 34 94 0 18 -20 25 -41 30 -102 4
-43 11 -80 16 -83 18 -11 31 -366 20 -559 -5 -102 -14 -187 -19 -190 -5 -3
-15 -49 -22 -101 -7 -52 -16 -97 -19 -100 -3 -3 -12 -31 -20 -62 -7 -32 -17
-58 -21 -58 -4 0 -13 -26 -20 -57 -7 -32 -16 -60 -19 -63 -3 -3 -12 -20 -19
-37 -8 -18 -17 -33 -21 -33 -5 0 -11 -18 -15 -40 -4 -22 -12 -46 -19 -53 -6
-6 -18 -26 -25 -44 -7 -17 -19 -34 -26 -37 -8 -3 -17 -21 -21 -41 -3 -20 -12
-39 -20 -42 -7 -2 -18 -20 -24 -39 -6 -19 -16 -34 -21 -34 -5 0 -9 -6 -9 -14
0 -7 -13 -27 -30 -44 -16 -18 -30 -36 -30 -42 0 -5 -4 -10 -9 -10 -5 0 -13
-13 -19 -28 -5 -16 -44 -64 -86 -107 -42 -43 -79 -89 -82 -102 -4 -13 -11 -23
-18 -23 -15 0 -46 -36 -46 -55 0 -8 -9 -15 -20 -15 -11 0 -23 -7 -26 -15 -4
-8 -15 -15 -25 -15 -14 0 -21 -9 -25 -30 -5 -21 -12 -30 -25 -30 -11 0 -19 -4
-19 -10 0 -5 -13 -10 -29 -10 -21 0 -32 -6 -36 -20 -3 -11 -11 -20 -16 -20
-16 0 -39 -27 -39 -44 0 -10 -14 -18 -37 -22 -22 -4 -49 -19 -64 -36 -15 -15
-34 -28 -43 -28 -9 0 -16 -4 -16 -8 0 -5 -18 -14 -40 -21 -22 -6 -40 -16 -40
-21 0 -6 -7 -10 -15 -10 -8 0 -15 -4 -15 -9 0 -5 -27 -14 -60 -22 -41 -9 -62
-19 -66 -31 -3 -10 -15 -18 -27 -18 -30 0 -141 -23 -147 -31 -3 -3 -40 -12
-82 -19 -43 -7 -78 -17 -78 -21 0 -5 -31 -9 -70 -9 -40 0 -70 -4 -70 -10 0 -6
-82 -10 -225 -10 -143 0 -225 4 -225 10 0 6 -28 10 -65 10 -36 0 -65 4 -65 9
0 9 -16 12 -142 27 -32 3 -58 10 -58 15 0 5 -9 9 -20 9 -30 0 -110 23 -110 32
0 4 -7 8 -15 8 -8 0 -15 4 -15 8 0 5 -23 14 -51 20 -29 7 -59 21 -68 31 -9 10
-31 22 -49 26 -18 4 -36 13 -39 21 -3 8 -14 14 -24 14 -10 0 -19 5 -19 10 0 6
-7 10 -15 10 -8 0 -15 5 -15 10 0 6 -7 10 -15 10 -8 0 -15 5 -15 10 0 6 -9 10
-20 10 -11 0 -23 7 -26 15 -4 8 -11 15 -18 15 -6 0 -18 9 -26 20 -8 11 -20 20
-27 20 -6 0 -15 9 -18 20 -5 15 -15 20 -41 20 -19 0 -34 4 -34 9 0 15 -54 67
-88 85 -17 9 -32 20 -32 25 0 8 -8 18 -65 85 -14 15 -25 31 -25 35 0 4 -12 14
-27 22 -15 8 -39 27 -53 43 -14 15 -33 37 -42 47 -10 10 -18 22 -18 27 0 4
-11 20 -25 36 -14 16 -25 35 -25 42 0 7 -18 31 -40 54 -22 23 -40 50 -40 61 0
11 -7 22 -15 25 -8 3 -19 21 -25 40 -6 19 -15 34 -19 34 -3 0 -15 20 -26 45
-11 25 -23 45 -26 45 -3 0 -11 18 -18 40 -6 22 -16 40 -20 40 -5 0 -11 14 -14
30 -4 17 -12 30 -20 30 -7 0 -19 17 -26 38 -8 20 -18 39 -22 43 -5 3 -13 29
-19 59 -6 30 -14 56 -19 59 -5 4 -15 32 -22 64 -8 31 -16 57 -20 57 -3 0 -12
39 -19 88 -8 48 -18 91 -24 95 -8 6 -7 10 3 14 8 3 9 8 3 12 -14 8 -32 144
-32 237 0 43 -4 74 -10 74 -5 0 -10 14 -10 30 0 17 5 30 10 30 6 0 10 51 10
133 0 130 17 297 30 307 4 3 13 43 19 89 6 47 15 87 20 90 4 3 11 23 14 45 3
21 8 41 11 44 4 4 127 4 154 1 4 -1 27 -1 50 0 35 1 45 5 49 21 7 25 33 27 33
2 0 -10 9 -25 20 -35 11 -9 20 -28 20 -41 0 -35 10 -56 26 -56 7 0 16 -11 20
-25 3 -14 10 -25 15 -25 5 0 9 -5 9 -10 0 -13 68 -80 81 -80 5 0 9 -4 9 -10 0
-5 6 -10 14 -10 8 0 21 -6 28 -13 15 -15 94 -37 132 -37 13 0 26 -4 28 -9 2
-5 63 -13 136 -17 72 -4 132 -11 132 -15 0 -5 56 -9 125 -9 69 0 125 4 125 9
0 4 25 11 57 14 31 3 59 11 63 17 3 6 37 13 74 17 37 3 73 11 79 18 7 6 25 15
40 19 15 3 27 13 27 21 0 16 40 59 64 68 9 4 16 11 16 17 0 5 5 10 10 10 6 0
21 11 34 25 13 14 30 25 38 25 9 0 21 14 28 30 7 17 18 30 26 30 7 0 16 9 19
20 3 11 10 20 15 20 5 0 14 17 21 37 6 21 18 43 25 50 6 7 15 36 19 65 4 29
13 56 19 60 7 5 11 64 11 185 0 171 -1 179 -22 201 -13 12 -23 27 -23 33 0 6
-7 17 -15 25 -22 22 -18 34 10 34 14 0 25 -4 25 -10z m-75 -30 c7 0 19 -17 26
-37 6 -21 16 -41 21 -44 13 -8 26 -147 17 -184 -5 -22 -7 -11 -8 43 -1 39 -5
72 -9 72 -5 0 -14 23 -21 50 -7 28 -16 50 -21 50 -4 0 -13 14 -19 31 -11 31
-14 56 -4 32 2 -7 11 -13 18 -13z m655 0 c0 -13 -7 -20 -20 -20 -22 0 -23 1
-14 24 9 23 34 20 34 -4z m1469 -231 c6 -18 11 -45 11 -60 0 -16 4 -29 9 -29
8 0 35 -149 28 -157 -2 -2 -11 -1 -19 2 -22 9 -39 68 -32 112 4 29 2 44 -10
56 -17 17 -23 107 -7 107 5 0 14 -14 20 -31z m-2489 -49 c0 -5 -4 -10 -10 -10
-5 0 -10 5 -10 10 0 6 5 10 10 10 6 0 10 -4 10 -10z m-1211 -257 l-1 -68 -11
43 c-5 24 -16 42 -23 42 -8 0 -14 5 -14 10 0 6 6 10 14 10 8 0 16 7 20 15 11
30 16 14 15 -52z m-190 -10 c35 -3 57 -9 50 -14 -14 -8 -65 -5 -91 6 -11 4
-18 3 -18 -5 0 -6 -4 -8 -10 -5 -5 3 -10 16 -10 28 0 16 3 18 9 9 5 -8 35 -16
70 -19z m254 -13 c4 -15 0 -20 -14 -20 -18 0 -26 20 -12 33 11 12 21 8 26 -13z
m3740 -7 c58 -19 96 -54 104 -95 3 -15 9 -28 13 -28 7 0 30 -89 30 -116 0 -9
-11 -14 -30 -14 -16 0 -30 5 -30 10 0 6 -16 10 -35 10 -19 0 -35 4 -35 9 0 5
-18 11 -39 15 l-40 6 -3 106 c-2 58 -1 108 1 110 6 6 7 6 64 -13z m-10113
-493 c0 -223 -2 -260 -15 -260 -12 0 -15 -37 -18 -252 -1 -166 -3 -105 -5 177
-2 471 3 595 24 595 11 0 14 -48 14 -260z"/>
<path d="M17010 4891 c0 -6 -13 -25 -30 -43 -16 -18 -30 -40 -30 -49 0 -10 -6
-19 -12 -22 -9 -2 -13 -31 -13 -99 1 -76 4 -99 18 -112 9 -10 17 -26 17 -37 0
-10 7 -19 15 -19 26 0 33 -32 23 -110 -6 -41 -13 -77 -17 -80 -4 -3 -13 -44
-20 -92 -7 -49 -16 -88 -20 -88 -4 0 -13 -29 -20 -65 -7 -36 -17 -65 -21 -65
-4 0 -14 -29 -21 -65 -7 -36 -16 -65 -20 -65 -4 0 -13 -20 -20 -45 -7 -25 -16
-45 -20 -45 -4 0 -9 -13 -12 -29 -3 -16 -13 -36 -22 -44 -8 -9 -15 -19 -15
-24 0 -5 -14 -24 -30 -43 -46 -53 -50 -58 -50 -69 0 -6 -11 -22 -25 -37 -14
-15 -25 -35 -25 -45 0 -10 -10 -24 -22 -30 -13 -7 -30 -21 -38 -32 -26 -33
-118 -127 -126 -127 -4 0 -20 -12 -35 -27 -46 -44 -63 -57 -94 -73 -17 -8 -37
-22 -45 -31 -8 -9 -25 -19 -37 -23 -13 -4 -23 -11 -23 -16 0 -5 -16 -12 -35
-16 -19 -3 -35 -10 -35 -15 0 -5 -9 -9 -20 -9 -11 0 -20 -4 -20 -10 0 -5 -7
-10 -15 -10 -8 0 -15 -4 -15 -8 0 -16 -161 -32 -310 -32 -149 0 -310 16 -310
32 0 4 -9 8 -20 8 -11 0 -20 5 -20 10 0 6 -7 10 -15 10 -8 0 -15 4 -15 9 0 5
-18 12 -40 16 -22 4 -40 11 -40 16 0 5 -9 9 -20 9 -11 0 -23 7 -26 15 -4 8
-12 15 -20 15 -8 0 -14 4 -14 9 0 5 -20 15 -45 22 -25 7 -45 17 -45 21 0 4
-18 12 -40 18 -22 6 -40 15 -40 20 0 6 -7 10 -15 10 -8 0 -15 5 -15 10 0 6
-11 15 -25 20 -14 5 -25 14 -25 20 0 5 -7 10 -15 10 -9 0 -21 11 -27 25 -6 14
-17 25 -25 25 -7 0 -16 7 -19 15 -4 8 -12 15 -19 15 -8 0 -16 8 -19 18 -3 9
-19 23 -35 30 -16 7 -34 26 -41 42 -7 17 -15 30 -19 30 -18 0 -101 76 -101 93
0 7 -16 25 -35 42 -19 16 -35 35 -35 41 0 6 -11 20 -25 32 -14 12 -25 30 -25
40 0 11 -9 29 -20 42 -11 13 -23 34 -26 47 -4 13 -10 23 -14 23 -5 0 -11 14
-15 31 -4 17 -13 33 -20 35 -7 3 -16 21 -20 40 -3 19 -12 37 -19 40 -8 3 -19
25 -26 50 -7 24 -16 44 -20 44 -4 0 -13 20 -20 45 -7 25 -16 45 -20 45 -4 0
-10 12 -13 28 -13 61 -20 87 -28 92 -4 3 -10 25 -14 50 -7 45 -6 45 30 59 20
7 39 19 42 27 3 8 11 14 19 14 21 0 35 37 28 75 -6 35 -52 95 -72 95 -6 0 -12
6 -14 13 -3 8 -31 12 -90 12 -77 0 -88 -2 -106 -22 -11 -13 -25 -23 -31 -23
-6 0 -14 -13 -17 -30 -4 -16 -10 -30 -15 -30 -4 0 -11 -9 -14 -20 -3 -11 -15
-20 -26 -20 -10 0 -19 -4 -19 -10 0 -5 -7 -10 -15 -10 -8 0 -15 5 -15 10 0 6
-9 10 -19 10 -20 0 -24 -8 -36 -67 -4 -18 -11 -33 -16 -33 -5 0 -9 -22 -9 -50
0 -27 4 -50 9 -50 5 0 12 -11 15 -25 13 -51 76 -53 92 -3 7 24 40 58 56 58 4
0 8 9 8 20 0 14 7 20 24 20 19 0 25 -7 30 -35 4 -19 11 -35 15 -35 8 0 15 -23
28 -97 3 -18 9 -33 13 -33 5 0 14 -25 20 -55 6 -30 15 -55 20 -55 4 0 13 -22
20 -50 7 -27 16 -50 21 -50 5 0 9 -6 9 -13 0 -18 24 -67 33 -67 4 0 7 -10 7
-22 0 -13 11 -36 24 -51 14 -16 27 -46 31 -68 4 -21 11 -39 16 -39 5 0 14 -11
19 -25 5 -14 14 -25 20 -25 5 0 10 -7 10 -15 0 -8 11 -22 25 -31 14 -9 25 -24
25 -34 0 -10 18 -36 40 -60 21 -23 42 -50 45 -60 3 -10 19 -25 35 -32 16 -7
33 -22 39 -35 11 -24 23 -39 76 -93 54 -56 83 -79 110 -92 14 -6 25 -15 25
-19 0 -4 9 -10 19 -14 11 -3 33 -18 49 -33 17 -15 40 -34 52 -42 12 -8 28 -21
36 -27 7 -7 15 -13 19 -13 3 0 17 -11 31 -25 14 -14 45 -31 70 -37 24 -7 44
-16 44 -20 0 -4 6 -8 13 -8 7 0 19 -9 27 -20 8 -11 22 -20 32 -20 10 0 18 -4
18 -10 0 -5 25 -10 55 -10 30 0 55 -4 55 -10 0 -5 9 -10 20 -10 11 0 20 -4 20
-10 0 -5 9 -10 20 -10 11 0 20 -4 20 -10 0 -5 9 -10 20 -10 11 0 20 -4 20 -10
0 -5 15 -10 34 -10 19 0 36 -5 38 -12 6 -18 440 -18 445 0 3 7 21 12 44 12 21
0 39 5 39 10 0 6 11 10 25 10 14 0 25 5 25 10 0 6 7 10 15 10 8 0 15 5 15 10
0 6 9 10 20 10 11 0 20 5 20 10 0 6 20 10 45 10 25 0 45 5 45 10 0 6 6 10 13
10 7 0 19 9 27 20 8 11 20 20 27 20 7 0 13 4 13 8 0 4 16 14 35 21 20 7 58 35
86 62 27 27 54 49 60 49 5 0 15 11 21 25 6 14 17 25 23 25 15 0 64 50 190 194
14 16 25 36 25 45 0 9 10 21 23 26 12 6 23 20 25 33 2 12 7 22 12 22 4 0 13
14 19 30 5 17 14 30 19 30 5 0 12 12 15 28 3 15 15 38 26 50 11 13 23 37 26
53 4 16 10 29 15 29 4 0 14 24 21 52 6 29 18 58 24 65 7 6 16 32 19 58 4 25
11 45 15 45 5 0 14 35 21 78 7 42 17 80 22 83 4 3 14 53 20 112 7 59 16 107
20 107 4 0 8 15 8 33 0 17 3 49 6 70 l7 37 92 0 c88 0 92 1 105 25 7 14 17 25
22 25 4 0 8 18 8 40 0 22 -4 40 -10 40 -5 0 -10 17 -10 38 -1 51 -16 68 -83
87 -31 9 -57 21 -57 26 0 5 -9 9 -20 9 -15 0 -20 -7 -20 -25 0 -14 -4 -25 -10
-25 -5 0 -10 -16 -10 -35 0 -31 -3 -35 -25 -35 -14 0 -25 4 -25 9 0 5 -8 17
-17 27 -12 11 -18 37 -21 83 -4 89 -10 111 -27 111 -8 0 -15 5 -15 10 0 6 -7
10 -15 10 -8 0 -15 -4 -15 -9z m217 -387 c-3 -3 -12 -4 -19 -1 -8 3 -5 6 6 6
11 1 17 -2 13 -5z"/>
</g>
</svg>
