<?xml version="1.0" standalone="no"?>
<!DOCTYPE svg PUBLIC "-//W3C//DTD SVG 20010904//EN"
 "http://www.w3.org/TR/2001/REC-SVG-20010904/DTD/svg10.dtd">
<svg version="1.0" xmlns="http://www.w3.org/2000/svg"
 width="660.000000pt" height="662.000000pt" viewBox="0 0 660.000000 662.000000"
 preserveAspectRatio="xMidYMid meet">

<g transform="translate(0.000000,662.000000) scale(0.100000,-0.100000)"
fill="#000000" stroke="none">
<path d="M0 3310 l0 -3310 3300 0 3300 0 0 3310 0 3310 -3300 0 -3300 0 0
-3310z m3319 2570 c227 -18 391 -64 616 -176 155 -76 246 -147 457 -353 139
-135 172 -174 131 -152 -80 44 -212 87 -235 79 -7 -3 -49 1 -93 8 -108 18
-269 17 -390 -2 -55 -9 -117 -18 -138 -21 -20 -3 -40 -9 -43 -14 -3 -5 -16 -9
-29 -9 -13 0 -48 -10 -77 -21 -45 -18 -74 -22 -188 -22 -207 0 -333 18 -392
57 -101 66 -478 94 -649 48 -101 -27 -189 -72 -270 -138 -114 -93 -114 -93
-127 -190 -6 -48 -14 -89 -16 -92 -3 -2 -38 -7 -78 -9 -40 -2 -68 -1 -62 4 15
11 30 42 50 99 18 55 107 211 167 294 55 75 238 255 317 311 97 68 272 162
385 208 106 42 248 75 386 90 119 12 129 12 278 1z m-630 -591 c62 -10 126
-39 120 -54 -2 -5 -6 -9 -9 -9 -3 1 -86 7 -185 14 -231 15 -325 28 -300 43 46
25 242 29 374 6z m589 -115 c75 -2 122 -9 142 -19 35 -18 37 -26 10 -50 -28
-26 -33 -70 -16 -155 33 -171 147 -340 275 -409 35 -18 108 -43 173 -58 101
-24 134 -27 308 -27 185 -1 198 0 250 23 62 28 160 91 205 133 34 32 65 36 87
11 28 -33 52 -215 51 -388 -1 -182 -25 -311 -86 -465 -46 -114 -178 -338 -221
-375 -7 -5 -19 -20 -28 -33 -25 -36 -185 -199 -202 -205 -9 -4 -16 -11 -16
-17 0 -5 -7 -10 -15 -10 -9 0 -18 -7 -21 -15 -4 -8 -12 -15 -20 -15 -8 0 -14
-3 -14 -8 0 -4 -20 -18 -45 -32 -25 -14 -45 -27 -45 -31 0 -7 -169 -91 -230
-114 -25 -9 -54 -21 -65 -25 -11 -5 -81 -24 -155 -42 -134 -33 -136 -33 -375
-32 -153 0 -258 5 -290 13 -27 7 -73 16 -102 22 -91 16 -316 107 -403 163
-255 162 -429 332 -551 537 -18 30 -51 83 -75 119 -49 75 -112 239 -128 335
-2 17 -10 55 -16 85 -20 92 -14 342 10 457 38 176 50 202 94 194 4 -1 38 -2
74 -2 49 -1 69 3 78 15 14 20 20 20 28 -1 3 -10 14 -29 23 -43 10 -14 27 -39
37 -55 52 -81 144 -120 333 -140 155 -17 259 -18 318 -5 22 4 67 14 100 21 67
14 135 39 135 50 0 4 42 40 94 79 82 61 97 78 119 128 36 82 50 156 46 248 -4
69 -8 84 -34 118 l-30 39 40 -7 c22 -5 91 -10 153 -12z m-174 -54 c16 -41 24
-125 13 -137 -4 -3 -7 14 -7 39 0 32 -9 64 -30 102 -24 46 -26 54 -11 46 10
-5 26 -28 35 -50z m456 50 c0 -5 -7 -10 -16 -10 -8 0 -12 5 -9 10 3 6 10 10
16 10 5 0 9 -4 9 -10z m1132 -238 c21 -81 17 -100 -12 -62 -14 18 -18 34 -14
56 3 18 1 35 -5 38 -6 4 -11 24 -11 44 1 32 2 34 12 18 6 -11 20 -53 30 -94z
m-2803 -119 c-1 -48 -1 -48 -11 -15 -6 17 -16 32 -21 32 -9 0 21 28 31 30 1 0
2 -21 1 -47z m-127 -3 c17 0 28 -3 25 -6 -10 -10 -50 -11 -69 -2 -12 6 -18 5
-18 -2 0 -6 -4 -8 -10 -5 -5 3 -10 13 -10 20 0 11 6 12 26 5 14 -6 39 -10 56
-10z m166 -29 c-15 -5 -21 7 -13 26 7 17 8 17 15 -2 4 -11 3 -22 -2 -24z
m2832 6 c46 -22 81 -70 96 -131 l7 -29 -44 7 c-24 4 -61 11 -81 17 l-36 9 -4
71 c-4 92 -6 90 62 56z m-3047 -2816 c97 -10 179 -20 182 -23 2 -2 -5 -28 -16
-57 -26 -68 -45 -158 -53 -243 l-7 -68 107 0 107 0 -7 60 c-9 74 -38 163 -72
213 -14 22 -24 40 -22 42 4 4 286 55 346 62 l42 6 0 -35 c0 -29 -5 -37 -36
-51 l-35 -17 8 -73 c11 -98 6 -268 -10 -344 l-14 -63 49 0 c40 0 48 -3 48 -19
0 -10 3 -39 6 -65 l7 -47 -50 7 c-59 7 -143 -8 -231 -43 -35 -14 -65 -23 -68
-21 -2 2 3 42 10 89 8 46 17 115 21 153 l7 68 -39 -5 c-21 -4 -69 -9 -107 -12
l-68 -7 6 -57 c4 -31 16 -95 26 -141 11 -45 19 -85 16 -87 -2 -2 -32 6 -67 18
-68 23 -191 31 -241 15 l-28 -8 0 56 0 56 54 0 53 0 -14 53 c-20 76 -43 288
-43 394 0 50 -3 98 -6 107 -3 9 -24 21 -45 26 -36 10 -39 14 -39 45 0 42 -18
40 223 16z m2011 -204 c17 -23 22 -46 24 -118 l4 -89 63 65 c75 77 128 104
208 105 103 0 158 -46 165 -139 6 -78 -27 -152 -101 -225 l-54 -54 36 -7 c80
-13 89 -17 99 -40 l12 -25 -176 0 c-97 0 -174 3 -172 8 79 154 118 278 99 319
-6 13 -15 23 -20 23 -27 0 -85 -70 -126 -152 -39 -78 -45 -98 -45 -153 0 -64
8 -80 44 -86 25 -5 30 -20 13 -43 -13 -18 -17 -18 -108 3 -52 12 -111 26 -131
32 l-37 9 16 43 c22 58 30 285 11 309 -12 17 -15 17 -46 -2 -39 -24 -94 -131
-94 -183 0 -19 8 -61 17 -96 10 -34 16 -64 13 -66 -2 -3 -42 5 -88 16 -82 21
-165 22 -228 3 -22 -6 -23 -5 -20 47 l3 54 48 3 c40 3 47 6 43 20 -11 33 -44
197 -51 247 -9 68 -16 77 -67 84 -34 5 -44 10 -46 27 -3 24 11 26 277 40 119
6 124 6 116 -12 -19 -47 -35 -110 -35 -138 l1 -31 19 36 c27 51 103 132 158
169 62 41 124 40 156 -3z m1077 -39 c74 -37 99 -81 107 -190 l5 -81 -39 6
c-21 3 -106 17 -189 31 -82 14 -163 26 -180 28 l-30 3 -3 -67 c-2 -37 2 -85 8
-107 22 -82 95 -134 156 -110 l29 11 -48 18 c-60 23 -77 37 -94 78 -29 69 13
102 127 102 140 0 210 -36 210 -108 0 -29 -8 -48 -35 -79 -52 -61 -105 -78
-245 -78 -135 0 -182 16 -250 86 -124 128 -140 341 -31 418 77 55 148 70 316
68 119 -2 135 -4 186 -29z m-1851 -3 c56 -33 75 -77 74 -170 -1 -159 -61 -283
-165 -340 -49 -27 -62 -30 -149 -30 -82 0 -103 4 -151 26 -240 113 -245 375
-9 494 74 38 113 44 245 42 100 -2 126 -5 155 -22z"/>
<path d="M4228 4343 c-49 -51 -60 -114 -33 -179 8 -20 24 -43 35 -52 20 -17
20 -17 -4 -122 -28 -122 -83 -277 -126 -359 -48 -90 -164 -226 -253 -297 -184
-147 -314 -194 -532 -194 -170 0 -257 22 -455 117 -97 47 -229 133 -265 173
-11 13 -38 36 -60 52 -59 43 -152 162 -224 288 -59 102 -131 260 -130 285 0 6
20 23 45 39 56 35 62 50 37 84 -61 84 -197 80 -249 -7 -18 -30 -56 -49 -62
-31 -9 24 -32 6 -46 -37 -22 -64 -20 -87 9 -120 l24 -28 45 48 c24 26 51 47
59 47 9 0 24 -24 37 -57 109 -287 176 -398 333 -561 249 -256 609 -422 917
-422 249 0 507 121 706 332 128 135 213 284 263 460 24 84 61 258 61 291 0 4
31 7 68 7 90 0 108 17 96 87 -9 46 -12 49 -64 75 -30 15 -60 28 -67 28 -6 0
-14 -18 -18 -40 -9 -51 -19 -57 -50 -26 -20 20 -25 35 -25 75 0 39 -4 53 -19
61 -26 13 -23 14 -53 -17z"/>
<path d="M4503 1679 c-70 -16 -81 -57 -21 -78 101 -36 233 -17 226 31 -7 48
-102 70 -205 47z"/>
<path d="M2655 1547 c-106 -36 -174 -92 -155 -127 22 -40 146 -59 243 -36 162
38 233 120 135 156 -51 18 -177 22 -223 7z"/>
</g>
</svg>
